<svg width="33" height="32" viewBox="0 0 33 32" fill="none" xmlns="http://www.w3.org/2000/svg">
<path d="M13.1667 21.0952C13.1667 18.4286 11.6429 16.2381 9.45238 15.2857L14.119 5H8.11905L1.45238 17.2857C0.976191 18.2381 0.5 19.9524 0.5 21.0952C0.5 24.619 3.35714 27.4762 6.88095 27.4762C10.4048 27.4762 13.1667 24.619 13.1667 21.0952ZM31.5476 21.0952C31.5476 18.4286 30.0238 16.2381 27.8333 15.2857L32.5 5H26.5L19.8333 17.2857C19.3571 18.2381 18.881 19.9524 18.881 21.0952C18.881 24.619 21.7381 27.4762 25.2619 27.4762C28.7857 27.4762 31.5476 24.619 31.5476 21.0952Z" fill="black"/>
</svg>
