<svg width="1047" height="299" viewBox="0 0 1047 299" fill="none" xmlns="http://www.w3.org/2000/svg">
<g clip-path="url(#clip0_2016_43)">
<path d="M121.306 2.32879L119.97 2.28159L132.702 26.3563C175.129 41.1788 194.353 78.2979 194.306 115.732C194.243 169.672 152.854 210.803 99.3931 210.803H18.8632L18.5959 19.8105L73.7392 20.1724L0.0628772 0L0 230.692H97.1767C128.945 231.337 157.099 219.662 180.363 197.995C202.653 176.202 214.851 147.139 214.38 115.968C214.113 58.7234 178.225 14.791 121.29 2.32879H121.306Z" fill="#15A3FC"/>
<path d="M18.8632 20.2668H0.0471802V186.115H18.8632V20.2668Z" fill="url(#paint0_linear_2016_43)"/>
<path d="M138.314 95.9527L85.3871 0H0.0627441V20.2668H18.863L73.7391 20.1724L89.7413 49.0148L61.8239 97.0856C47.7079 119.728 54.3258 147.218 76.9458 161.363C94.017 172.048 124.198 169.766 138.314 147.123C148.076 131.467 148.076 111.609 138.314 95.9527ZM100.226 150.664C85.1827 150.664 72.9846 138.469 72.9846 123.426V123.395C72.9688 118.249 74.415 113.198 77.1816 108.84L101.028 68.0701L122.893 108.289L123.271 108.84C126.021 113.198 127.483 118.249 127.468 123.395C127.468 138.453 115.285 150.664 100.258 150.664H100.226Z" fill="#206DB5"/>
</g>
<g clip-path="url(#clip1_2016_43)">
<path d="M320.828 172.547H273.042V29.0221H320.828C371.282 29.2767 401.069 58.132 401.069 100.785C401.069 143.437 371.731 172.547 320.828 172.547ZM319.409 49.8755H300.44V150.978H319.409C355.467 151.209 372.774 137.981 373.271 100.336C373.732 65.8551 353.866 50.1059 319.409 49.8876V49.8755Z" fill="#1D1D1B"/>
<path d="M474.713 93.4131L464.829 92.0916C459.116 92.3219 442.003 95.062 443.373 119.977V172.195H418.486V70.1833H434.41C438.352 70.1833 441.542 73.372 441.542 77.3123L441.457 87.3632C441.457 87.8966 442.185 88.0543 442.391 87.5693C446.527 78.0883 455.635 68.5951 467.8 68.5951C469.801 68.5951 474.034 68.2314 478.449 70.3288C479.443 70.8017 480.025 71.8565 479.953 72.9476L478.788 90.079C478.643 92.1643 476.775 93.692 474.713 93.4131Z" fill="#1D1D1B"/>
<path d="M534.579 68.1101C562.487 68.1101 585.142 90.2851 585.142 121.177C585.142 152.069 562.487 174.475 534.579 174.475C506.672 174.475 484.234 152.082 484.234 121.177C484.234 90.273 506.684 68.1101 534.579 68.1101ZM534.458 87.5936C518.024 87.5329 509.122 101.924 509.122 121.189C509.122 140.455 517.345 155.088 534.458 155.004C552.735 154.919 559.794 140.442 559.794 121.189C559.794 101.936 552.723 87.6663 534.458 87.5936Z" fill="#1D1D1B"/>
<path d="M742.206 205.743H717.9V70.341L733.679 70.4137C736.833 70.4258 739.465 72.8385 739.768 75.9787L740.435 83.1561C740.544 84.3322 742.036 84.7201 742.727 83.7623C748.5 75.7241 759.537 68.5587 771.52 68.5587C798.336 68.5587 811.386 86.1629 812.296 119.71C813.06 147.935 797.499 172.014 770.744 173.796C753.618 174.936 744.255 165.806 742.436 164.206L742.206 205.743ZM742.145 146.007C742.145 146.007 748.136 156.107 762.69 155.416C779.452 154.628 786.486 139.63 786.486 122.038C786.486 104.446 783.224 88.7575 766.45 87.9815C755.486 87.4723 742.994 97.2201 742.994 100.3C742.994 105.792 742.133 145.995 742.133 145.995L742.145 146.007Z" fill="#1D1D1B"/>
<path d="M856.019 172.195H831.362V24.9969H856.019V172.195Z" fill="#1D1D1B"/>
<path d="M962.446 124.924H898.868C900.506 140.224 906.364 153.027 922.119 154.955C929.65 155.876 939.984 154.409 951.008 146.808C954.113 144.674 958.346 145.341 960.529 148.408L966.642 156.955C957.57 168.595 941.779 174.244 922.131 174.244C894.708 174.244 874.442 152.069 874.442 121.468C874.442 90.8671 894.308 69.565 921.512 68.9103C964.811 67.8677 968.401 104.943 968.17 119.322C968.122 122.438 965.563 124.924 962.446 124.924ZM899.208 110.108H946.084C945.114 97.2443 936.054 86.1629 923.319 86.1629C910.584 86.1629 901.525 95.9228 899.208 110.108Z" fill="#1D1D1B"/>
<path d="M648.902 68.3526C676.809 68.3526 699.465 90.5276 699.465 121.42C699.465 152.312 676.809 174.717 648.902 174.717C620.994 174.717 598.557 152.324 598.557 121.42C598.557 90.5155 621.006 68.3526 648.902 68.3526ZM648.78 87.836C632.346 87.7754 623.444 102.167 623.444 121.432C623.444 140.697 631.667 155.331 648.78 155.246C667.058 155.161 674.117 140.685 674.117 121.432C674.117 102.179 667.046 87.9088 648.78 87.836Z" fill="#1D1D1B"/>
<path d="M1041.74 94.0436L1031.86 92.722C1026.14 92.9524 1009.03 95.6925 1010.4 120.607V172.826H985.514V70.8259H1001.44C1005.38 70.8259 1008.57 74.0146 1008.57 77.9549L1008.49 88.0058C1008.49 88.5392 1009.21 88.6968 1009.42 88.2119C1013.55 78.7308 1022.66 69.2377 1034.83 69.2377C1036.83 69.2377 1041.06 68.874 1045.48 70.9714C1046.47 71.4443 1047.05 72.4991 1046.98 73.5902L1045.82 90.7216C1045.67 92.8069 1043.8 94.3345 1041.74 94.0557V94.0436Z" fill="#1D1D1B"/>
</g>
<g clip-path="url(#clip2_2016_43)">
<path d="M274.216 271.464C279.279 275.073 285.663 276.672 289.831 276.672C294.821 276.672 298.431 274.515 298.431 269.88C298.431 264.334 293.162 263.571 286.631 261.62C279.631 259.464 273.042 256.266 273.042 247.317C273.042 238.368 279.837 232.749 289.978 232.749C294.835 232.749 300.661 233.923 304.903 236.432V245.307C299.913 242.05 294.013 240.598 289.919 240.598C285.208 240.598 281.862 242.476 281.862 246.701C281.862 252.041 287.13 252.73 293.177 254.608C300.603 256.897 307.266 260.153 307.266 269.381C307.266 278.608 300.192 284.506 289.772 284.506C284.841 284.506 278.809 283.186 274.231 280.692V271.464H274.216Z" fill="#1D1D1B"/>
<path d="M313.84 233.512H343.823V241.346H322.66V253.83H341.049V261.327H322.66V275.894H344.527V283.728H313.855V233.512H313.84Z" fill="#1D1D1B"/>
<path d="M348.959 258.628C348.959 243.987 360.069 232.749 374.847 232.749C389.626 232.749 400.735 243.987 400.735 258.628C400.735 273.268 389.626 284.506 374.847 284.506C360.069 284.506 348.959 273.268 348.959 258.628ZM391.915 258.628C391.915 248.637 384.621 240.803 374.847 240.803C365.073 240.803 357.779 248.637 357.779 258.628C357.779 268.618 365.059 276.452 374.847 276.452C384.636 276.452 391.915 268.618 391.915 258.628Z" fill="#1D1D1B"/>
<path d="M423.292 233.512H454.037V241.346H432.112V254.799H451.19V262.295H432.112V283.728H423.292V233.512Z" fill="#1D1D1B"/>
<path d="M458.748 249.605H467.07V254.388L467.202 254.461C469.564 251.131 473.101 249.253 477.122 249.253C477.886 249.253 478.649 249.327 479.412 249.532V257.586C478.575 257.381 477.753 257.234 476.638 257.234C472.676 257.234 469.491 258.965 467.128 262.295V283.728H458.734V249.605H458.748Z" fill="#1D1D1B"/>
<path d="M488.731 233.101C491.578 233.101 493.941 235.463 493.941 238.309C493.941 241.155 491.578 243.517 488.672 243.517C485.766 243.517 483.462 241.155 483.462 238.309C483.462 235.463 485.825 233.101 488.731 233.101ZM484.504 249.605H492.899V283.743H484.504V249.605Z" fill="#1D1D1B"/>
<path d="M508.235 268.955C509.277 274.647 513.782 277.552 519.55 277.552C523.85 277.552 527.871 275.953 531.202 273.591V281.293C528.018 283.303 523.145 284.491 518.713 284.491C507.751 284.491 499.694 277.42 499.694 266.726C499.694 256.031 507.809 248.828 517.114 248.828C525.582 248.828 533.081 254.579 533.081 265.552C533.081 266.667 533.008 268.046 532.875 268.955H508.235ZM525.229 263.131C524.598 257.997 520.856 255.635 517.04 255.635C513.225 255.635 509.262 257.997 508.235 263.131H525.229Z" fill="#1D1D1B"/>
<path d="M540.228 249.605H548.549V253.288L548.681 253.361C551.528 250.794 555.417 248.857 559.923 248.857C563.606 248.857 566.791 250.104 568.948 252.466C570.959 254.623 571.869 257.454 571.869 262.53V283.758H563.474V263.982C563.474 260.931 563.063 259.258 562.08 258.158C561.038 256.911 559.512 256.28 557.575 256.28C554.243 256.28 550.78 258.217 548.622 260.579V283.743H540.228V249.605Z" fill="#1D1D1B"/>
<path d="M604.141 281.733C601.851 283.332 598.725 284.506 595.042 284.506C586.09 284.506 578.664 277.772 578.664 267.298C578.664 256.823 586.222 248.843 596.7 248.843C599.679 248.843 602.042 249.473 604.053 250.368L604.185 250.295V230.74H612.579V283.743H604.258V281.807L604.126 281.733H604.141ZM604.214 257.733C602.277 256.764 599.841 256.002 597.273 256.002C590.889 256.002 587.146 260.784 587.146 266.887C587.146 272.99 590.683 277.435 596.788 277.435C599.635 277.435 602.204 276.393 604.214 275.073V257.733Z" fill="#1D1D1B"/>
<path d="M621.561 230.74H629.955V283.743H621.561V230.74Z" fill="#1D1D1B"/>
<path d="M639.95 299L649.048 279.987L634.96 249.605H644.044L648.696 260.153C650.428 264.114 651.822 267.298 653.275 270.907H653.407C655.007 267.092 656.739 263.205 658.397 259.464L662.844 249.62H671.385L648.696 299.015H639.95V299Z" fill="#1D1D1B"/>
<path d="M691.315 271.464C696.378 275.073 702.762 276.672 706.93 276.672C711.919 276.672 715.529 274.515 715.529 269.88C715.529 264.334 710.261 263.571 703.73 261.62C696.715 259.464 690.126 256.28 690.126 247.332C690.126 238.383 696.921 232.764 707.062 232.764C711.919 232.764 717.746 233.938 721.987 236.446V245.322C716.997 242.065 711.097 240.613 707.003 240.613C702.292 240.613 698.946 242.49 698.946 246.715C698.946 252.055 704.215 252.745 710.261 254.623C717.687 256.911 724.35 260.168 724.35 269.396C724.35 278.623 717.276 284.52 706.856 284.52C701.925 284.52 695.893 283.2 691.315 280.706V271.479V271.464Z" fill="#1D1D1B"/>
<path d="M734.96 233.101C737.807 233.101 740.17 235.463 740.17 238.309C740.17 241.155 737.807 243.517 734.901 243.517C731.996 243.517 729.692 241.155 729.692 238.309C729.692 235.463 732.054 233.101 734.96 233.101ZM730.734 249.605H739.128V283.743H730.734V249.605Z" fill="#1D1D1B"/>
<path d="M768.758 282.907C767.232 283.802 764.458 284.506 761.817 284.506C758.838 284.506 755.638 283.596 753.496 281.176C751.764 279.298 750.722 276.467 750.722 271.391V256.75H744.749V249.605H750.722V240.525L759.116 239.072V249.62H768.758V256.764H759.116V270.217C759.116 274.031 759.806 277.229 763.622 277.229C765.427 277.229 767.364 276.54 768.758 275.777V282.921V282.907Z" fill="#1D1D1B"/>
<path d="M780.631 268.955C781.673 274.647 786.178 277.552 791.946 277.552C796.246 277.552 800.267 275.953 803.598 273.591V281.293C800.414 283.303 795.542 284.491 791.109 284.491C780.147 284.491 772.09 277.42 772.09 266.726C772.09 256.031 780.205 248.828 789.51 248.828C797.978 248.828 805.477 254.579 805.477 265.552C805.477 266.667 805.404 268.046 805.272 268.955H780.631ZM797.626 263.131C796.994 257.997 793.252 255.635 789.436 255.635C785.621 255.635 781.658 257.997 780.631 263.131H797.626Z" fill="#1D1D1B"/>
<path d="M828.577 233.512H842.592C849.255 233.512 853.423 234.202 856.813 236.212C860.496 238.368 862.712 241.757 862.712 246.334C862.712 251.747 859.513 255.077 855.154 256.603V256.735C861.333 258.261 864.738 262.486 864.738 268.735C864.738 273.459 862.8 277.684 858.148 280.53C854.538 282.745 849.827 283.714 842.607 283.714H828.591V233.512H828.577ZM845.234 254.872C850.091 254.872 853.907 252.789 853.907 248.08C853.907 245.439 852.733 243.708 850.781 242.593C848.829 241.478 846.481 241.199 842.034 241.199H837.382V254.872H845.219H845.234ZM843.018 276.026C848.227 276.026 851.075 275.469 853.012 274.222C854.611 273.18 855.932 271.449 855.932 268.53C855.932 263.674 852.19 261.18 845.527 261.18H837.411V276.026H843.032H843.018Z" fill="#1D1D1B"/>
<path d="M894.852 279.929C892.005 282.569 888.321 284.506 883.743 284.506C880 284.506 876.728 283.185 874.658 280.897C872.589 278.608 871.606 275.484 871.606 270.554V249.605H880V269.161C880 272.212 880.485 274.017 881.527 275.19C882.774 276.643 884.447 277.068 886.032 277.068C889.363 277.068 892.621 275.19 894.911 272.623V249.591H903.305V283.728H894.984V279.987L894.852 279.914V279.929Z" fill="#1D1D1B"/>
<path d="M916.572 233.101C919.419 233.101 921.782 235.463 921.782 238.309C921.782 241.155 919.419 243.517 916.514 243.517C913.608 243.517 911.304 241.155 911.304 238.309C911.304 235.463 913.666 233.101 916.572 233.101ZM912.346 249.605H920.74V283.743H912.346V249.605Z" fill="#1D1D1B"/>
<path d="M929.692 230.74H938.087V283.743H929.692V230.74Z" fill="#1D1D1B"/>
<path d="M970.506 281.733C968.216 283.332 965.09 284.506 961.407 284.506C952.454 284.506 945.028 277.772 945.028 267.298C945.028 256.823 952.586 248.843 963.065 248.843C966.044 248.843 968.407 249.473 970.417 250.368L970.55 250.295V230.74H978.944V283.743H970.623V281.807L970.491 281.733H970.506ZM970.579 257.733C968.642 256.764 966.206 256.002 963.637 256.002C957.253 256.002 953.511 260.784 953.511 266.887C953.511 272.99 957.048 277.435 963.153 277.435C966 277.435 968.568 276.393 970.579 275.073V257.733Z" fill="#1D1D1B"/>
<path d="M994.309 268.955C995.351 274.647 999.857 277.552 1005.62 277.552C1009.92 277.552 1013.95 275.953 1017.28 273.591V281.293C1014.09 283.303 1009.22 284.491 1004.79 284.491C993.825 284.491 985.768 277.42 985.768 266.726C985.768 256.031 993.884 248.828 1003.19 248.828C1011.66 248.828 1019.16 254.579 1019.16 265.552C1019.16 266.667 1019.08 268.046 1018.95 268.955H994.309ZM1011.3 263.131C1010.67 257.997 1006.93 255.635 1003.11 255.635C999.299 255.635 995.337 257.997 994.309 263.131H1011.3Z" fill="#1D1D1B"/>
<path d="M1026.3 249.605H1034.62V254.388L1034.76 254.461C1037.12 251.131 1040.66 249.253 1044.68 249.253C1045.44 249.253 1046.2 249.327 1046.97 249.532V257.586C1046.13 257.381 1045.31 257.234 1044.19 257.234C1040.23 257.234 1037.05 258.965 1034.68 262.295V283.728H1026.29V249.605H1026.3Z" fill="#1D1D1B"/>
</g>
<defs>
<linearGradient id="paint0_linear_2016_43" x1="9.46304" y1="183.172" x2="9.46304" y2="20.4242" gradientUnits="userSpaceOnUse">
<stop stop-color="#196DBA" stop-opacity="0.01"/>
<stop offset="1" stop-color="#196DBA"/>
</linearGradient>
<clipPath id="clip0_2016_43">
<rect width="214.395" height="230.74" fill="white"/>
</clipPath>
<clipPath id="clip1_2016_43">
<rect width="773.939" height="180.746" fill="white" transform="translate(273.042 24.9969)"/>
</clipPath>
<clipPath id="clip2_2016_43">
<rect width="773.939" height="68.2605" fill="white" transform="translate(273.042 230.74)"/>
</clipPath>
</defs>
</svg>
