<svg width="48" height="48" viewBox="0 0 48 48" fill="none" xmlns="http://www.w3.org/2000/svg">
<rect width="48" height="48" rx="8" fill="#D8DDEB"/>
<g clip-path="url(#clip0_6217_5145)">
<path d="M22.4666 28.1999C22.7266 27.9399 22.7266 27.5199 22.4666 27.2599L19.8866 24.6666H30C30.3666 24.6666 30.6666 24.3666 30.6666 23.9999C30.6666 23.6332 30.3666 23.3332 30 23.3332H19.8866L22.4733 20.7466C22.7333 20.4866 22.7333 20.0666 22.4733 19.8066C22.2133 19.5466 21.7933 19.5466 21.5333 19.8066L17.8 23.5332C17.54 23.7932 17.54 24.2132 17.8 24.4732L21.5266 28.1999C21.7866 28.4532 22.2133 28.4532 22.4666 28.1999Z" fill="#2E2F38"/>
</g>
<defs>
<clipPath id="clip0_6217_5145">
<rect width="16" height="16" fill="white" transform="translate(16 16)"/>
</clipPath>
</defs>
</svg>
