<svg width="48" height="48" viewBox="0 0 48 48" fill="none" xmlns="http://www.w3.org/2000/svg">
<rect width="48" height="48" rx="8" fill="#D8DDEB"/>
<g clip-path="url(#clip0_6220_4377)">
<path d="M19.3334 24.6666H26.7801L23.5267 27.9199C23.2667 28.1799 23.2667 28.6066 23.5267 28.8666C23.7867 29.1266 24.2067 29.1266 24.4667 28.8666L28.8601 24.4732C29.1201 24.2132 29.1201 23.7932 28.8601 23.5332L24.4734 19.1332C24.2134 18.8732 23.7934 18.8732 23.5334 19.1332C23.2734 19.3932 23.2734 19.8132 23.5334 20.0732L26.7801 23.3332H19.3334C18.9667 23.3332 18.6667 23.6332 18.6667 23.9999C18.6667 24.3666 18.9667 24.6666 19.3334 24.6666Z" fill="#2E2F38"/>
</g>
<defs>
<clipPath id="clip0_6220_4377">
<rect width="16" height="16" fill="white" transform="translate(16 16)"/>
</clipPath>
</defs>
</svg>
